<svg xmlns="http://www.w3.org/2000/svg" xmlns:xlink="http://www.w3.org/1999/xlink" width="399" height="102" viewBox="0 0 399 102">
    <defs>
        <path id="a" d="M112.299 6.434H71.444L32.433 39.661V.195L.883 26.914v74.327L41.89 66.347l32.615 32.001h43.782l-54.68-50.481 48.692-41.433"/>
        <linearGradient id="b" x1="-3.308%" x2="102.834%" y1="82.105%" y2="29.363%">
            <stop offset="0%" stop-color="#DD452D"/>
            <stop offset="100%" stop-color="#FFDB1A"/>
        </linearGradient>
    </defs>
    <g fill="none" fill-rule="evenodd">
        <g>
            <mask id="c" fill="#fff">
                <use xlink:href="#a"/>
            </mask>
            <path fill="url(#b)" d="M112.299 6.434H71.444L32.433 39.661V.195L.883 26.914v74.327L41.89 66.347l32.615 32.001h43.782l-54.68-50.481 48.692-41.433" mask="url(#c)"/>
        </g>
        <path fill="#FFFFFE" d="M184.915 28.958h-12.417l-18.19 18.598V28.958h-10.435V70.35h10.435V59.098l7.054-6.995L173.78 70.35h12.068l-17.023-25.01 16.09-16.382M208.178 54.201l3.964-10.377c1.282-2.973 2.099-4.897 2.683-7.695h.116c.642 2.798 1.457 4.722 2.739 7.695l3.964 10.377h-13.466zm.525-25.242l-16.065 37.766v3.625h9.302l3.498-9.036h18.947l3.44 9.036h9.302v-3.637L221.12 28.959h-12.417zM269.056 63.179h-11.425V52.628h11.543c4.313 0 6.413 2.04 6.413 5.188 0 3.09-2.041 5.363-6.531 5.363zm-11.425-27.05h10.842c4.431 0 6.064 2.157 6.064 4.722 0 2.682-1.458 5.014-6.064 5.014h-10.842v-9.736zm20.053 12.592c5.131-1.224 7.755-4.838 7.755-9.211 0-6.005-4.431-10.552-14.108-10.552h-24.136V70.35h24.602c10.144 0 14.691-5.247 14.691-11.718 0-5.421-3.031-9.036-8.804-9.911zM383.66 28.958l-8.979 25.302c-.582 1.807-1.048 3.439-1.223 4.838h-.117c-.174-1.399-.583-2.973-1.166-4.78l-9.153-25.36h-14.925V70.35h8.979V42.658c0-1.923-.058-3.847-.291-5.363h.233c.233 1.282.758 3.207 1.34 4.722l10.203 28.333h9.211l10.144-28.333c.583-1.515 1.223-3.673 1.457-4.781h.175a56.271 56.271 0 0 0-.291 5.422V70.35h9.561V28.958H383.66M308.847 54.201l3.964-10.377c1.282-2.973 2.099-4.897 2.682-7.695h.117c.641 2.798 1.457 4.722 2.739 7.695l3.964 10.377h-13.466zm.525-25.242l-16.065 37.766v3.625h9.302l3.498-9.036h18.946l3.441 9.036h9.302v-3.637l-16.007-37.754h-12.417z"/>
    </g>
</svg>
